<svg t="1736548442685" class="icon" viewBox="0 0 1024 1024" version="1.1" xmlns="http://www.w3.org/2000/svg" p-id="2109" width="200" height="200"><path d="M512 512c54.656-1.322667 100.010667-20.010667 136.021333-56.021333 35.968-35.968 54.613333-81.28 55.978667-135.978667-1.365333-54.698667-20.010667-100.010667-56.021333-136.021333C612.053333 148.053333 566.741333 129.365333 512 128c-54.656 1.322667-100.010667 20.010667-136.021333 56.021333C340.053333 219.946667 321.365333 265.301333 320 320c1.365333 54.656 20.010667 100.010667 56.021333 136.021333 35.968 35.968 81.28 54.613333 135.978667 55.978667z m0 64c-72.661333-2.005333-132.992-27.008-180.992-75.008S258.005333 392.661333 256 320c2.005333-72.661333 27.008-132.992 75.008-180.992S439.338667 66.005333 512 64c72.661333 2.005333 132.992 27.008 180.992 75.008S765.994667 247.338667 768 320c-2.005333 72.661333-27.008 132.992-75.008 180.992S584.661333 573.994667 512 576z m320 320v-96c-0.64-27.306667-9.984-50.005333-27.989333-68.010667-18.005333-18.005333-40.704-27.306667-68.010667-27.989333H288c-27.306667 0.64-50.005333 9.984-68.010667 27.989333-18.005333 18.005333-27.306667 40.704-27.989333 68.010667V896a31.146667 31.146667 0 0 1-8.96 23.04 31.146667 31.146667 0 0 1-23.04 8.96 31.146667 31.146667 0 0 1-23.04-8.96A31.146667 31.146667 0 0 1 128 896v-96c1.322667-45.354667 17.024-82.986667 47.018667-112.981333 29.994667-29.994667 67.626667-45.653333 112.981333-47.018667h448c45.354667 1.322667 82.986667 17.024 112.981333 47.018667 29.994667 29.994667 45.653333 67.626667 47.018667 112.981333V896a31.146667 31.146667 0 0 1-8.96 23.04 31.146667 31.146667 0 0 1-23.04 8.96 31.146667 31.146667 0 0 1-23.04-8.96 31.146667 31.146667 0 0 1-8.96-23.04z" fill="#c9c9c9" fill-opacity=".96" p-id="2110"></path></svg>