<svg t="1733388885544" class="icon" viewBox="0 0 1024 1024" version="1.1" xmlns="http://www.w3.org/2000/svg" p-id="80315" width="32" height="32"><path d="M128 538.656a32 32 0 0 1 31.776 28.256l0.224 3.744v220.608c0 38.496 29.92 70.016 67.744 72.576l4.992 0.16h558.528a72.736 72.736 0 0 0 72.576-67.744l0.16-4.992v-124.896l-25.12 29.12a32 32 0 0 1-50.88-38.656l2.432-3.2 78.816-91.232a31.84 31.84 0 0 1 16.8-10.24 32 32 0 0 1 41.728 26.688l0.224 3.744v208.672c0 73.28-57.664 133.12-130.112 136.576l-6.624 0.16H232.736a136.736 136.736 0 0 1-136.576-130.112L96 791.264v-220.608a32 32 0 0 1 32-32zM791.264 96c73.28 0 133.12 57.664 136.576 130.112l0.16 6.624v220a32 32 0 0 1-63.776 3.712L864 452.736V232.736a72.736 72.736 0 0 0-67.744-72.576L791.264 160H232.736a72.736 72.736 0 0 0-72.576 67.744L160 232.736v127.328l24.768-28.608a32 32 0 0 1 50.88 38.624l-2.464 3.2-78.816 91.264a32 32 0 0 1-39.072 7.424 32 32 0 0 1-19.072-25.632L96 442.56V232.736c0-73.28 57.664-133.12 130.112-136.576L232.736 96h558.528z" fill="#000000" p-id="80316"></path><path d="M640 353.984a32 32 0 0 1 31.776 28.288l0.224 3.712V480h32a32 32 0 0 1 31.776 28.256L736 512v192a32 32 0 0 1-28.256 31.776L704 736h-128a32 32 0 0 1-31.776-28.256L544 704v-192a32 32 0 0 1 28.256-31.776L576 480h32v-94.016a32 32 0 0 1 32-32zM672 544h-64v128h64v-128zM384 257.984a32 32 0 0 1 31.776 28.288l0.224 3.712V384h32a32 32 0 0 1 31.776 28.256L480 416v160a32 32 0 0 1-28.256 31.776L448 608h-32v96a32 32 0 0 1-63.776 3.744L352 704v-96h-32a32 32 0 0 1-31.776-28.256L288 576v-160a32 32 0 0 1 28.256-31.776L320 384h32V289.984a32 32 0 0 1 32-32zM416 448h-64v96h64v-96z" fill="#D20A10" p-id="80317"></path></svg>